<?xml version="1.0" encoding="UTF-8"?>
<svg id="Layer_2" data-name="Layer 2" xmlns="http://www.w3.org/2000/svg" viewBox="0 0 84.65 46">
  <defs>
    <style>
      .cls-1 {
        fill: #666;
      }

      .cls-1, .cls-2, .cls-3, .cls-4, .cls-5 {
        stroke-width: 0px;
      }

      .cls-2 {
        fill: #b31e35;
      }

      .cls-3 {
        fill: #fff;
      }

      .cls-4 {
        fill: #181926;
      }

      .cls-5 {
        fill: #deded7;
      }
    </style>
  </defs>
  <g id="Layer_2-2" data-name="Layer 2">
    <g>
      <circle class="cls-1" cx="23" cy="23" r="23"/>
      <circle class="cls-1" cx="23" cy="23" r="23"/>
      <circle class="cls-1" cx="23" cy="23" r="23"/>
      <circle class="cls-2" cx="23" cy="23" r="23"/>
      <g>
        <path class="cls-5" d="m13.57,21.14h-2.64v8.29h-2.93v-8.29h-2.65v-2.73h8.22v2.73Z"/>
        <path class="cls-5" d="m20.7,29.43l-2.95-4.79v4.79h-2.93v-11.02s4.17,0,4.17,0c2.38,0,4.08,1.61,4.08,3.58,0,1.37-.83,2.52-1.91,3.01l2.95,4.42h-3.42Zm-2.96-6.18h1.2c.62.01,1.19-.42,1.19-1.1s-.57-1.11-1.19-1.11h-1.2v2.21Z"/>
        <path class="cls-5" d="m32.58,28.14h-4.12l-.56,1.29h-3.2l5.12-11.16.7-1.62,5.81,12.78h-3.21l-.55-1.29Zm-.93-2.14l-1.13-2.61-1.13,2.61h2.26Z"/>
        <path class="cls-5" d="m37.1,18.41h4.16c2.27,0,4.16,1.71,4.16,3.86s-1.85,3.91-4.16,3.91h-1.24v3.25h-2.93v-11.02Zm5.5,3.88c0-.67-.56-1.18-1.34-1.18h-1.24v2.37h1.24c.79.01,1.34-.52,1.34-1.2Z"/>
        <path class="cls-5" d="m55.79,18.41v11.02h-2.92v-4.15h-3.27v4.15h-2.93v-11.02h2.93v4.14h3.27v-4.14h2.92Z"/>
        <path class="cls-5" d="m57.23,23.93c0-3.31,2.62-5.82,6.05-5.82s6.05,2.51,6.05,5.82-2.62,5.78-6.06,5.78-6.04-2.5-6.04-5.78Zm9.14-.02c0-1.7-1.34-3.01-3.09-3.01s-3.09,1.31-3.09,3.01,1.34,3,3.09,3,3.09-1.31,3.09-3Z"/>
        <path class="cls-5" d="m77.91,26.68v2.75h-7.14v-11.02h2.93v8.27h4.22Z"/>
        <path class="cls-5" d="m84.65,21.14h-2.64v8.29h-2.93v-8.29h-2.65v-2.73h8.22v2.73Z"/>
      </g>
      <g>
        <path class="cls-5" d="m13.57,21.14h-2.64v8.29h-2.93v-8.29h-2.65v-2.73h8.22v2.73Z"/>
        <path class="cls-5" d="m20.7,29.43l-2.95-4.79v4.79h-2.93v-11.02s4.17,0,4.17,0c2.38,0,4.08,1.61,4.08,3.58,0,1.37-.83,2.52-1.91,3.01l2.95,4.42h-3.42Zm-2.96-6.18h1.2c.62.01,1.19-.42,1.19-1.1s-.57-1.11-1.19-1.11h-1.2v2.21Z"/>
        <path class="cls-5" d="m32.58,28.14h-4.12l-.56,1.29h-3.2l5.12-11.16.7-1.62,5.81,12.78h-3.21l-.55-1.29Zm-.93-2.14l-1.13-2.61-1.13,2.61h2.26Z"/>
        <path class="cls-5" d="m37.1,18.41h4.16c2.27,0,4.16,1.71,4.16,3.86s-1.85,3.91-4.16,3.91h-1.24v3.25h-2.93v-11.02Zm5.5,3.88c0-.67-.56-1.18-1.34-1.18h-1.24v2.37h1.24c.79.01,1.34-.52,1.34-1.2Z"/>
        <path class="cls-5" d="m55.79,18.41v11.02h-2.92v-4.15h-3.27v4.15h-2.93v-11.02h2.93v4.14h3.27v-4.14h2.92Z"/>
        <path class="cls-5" d="m57.23,23.93c0-3.31,2.62-5.82,6.05-5.82s6.05,2.51,6.05,5.82-2.62,5.78-6.06,5.78-6.04-2.5-6.04-5.78Zm9.14-.02c0-1.7-1.34-3.01-3.09-3.01s-3.09,1.31-3.09,3.01,1.34,3,3.09,3,3.09-1.31,3.09-3Z"/>
        <path class="cls-5" d="m77.91,26.68v2.75h-7.14v-11.02h2.93v8.27h4.22Z"/>
        <path class="cls-5" d="m84.65,21.14h-2.64v8.29h-2.93v-8.29h-2.65v-2.73h8.22v2.73Z"/>
      </g>
      <g>
        <path class="cls-5" d="m13.57,21.14h-2.64v8.29h-2.93v-8.29h-2.65v-2.73h8.22v2.73Z"/>
        <path class="cls-5" d="m20.7,29.43l-2.95-4.79v4.79h-2.93v-11.02s4.17,0,4.17,0c2.38,0,4.08,1.61,4.08,3.58,0,1.37-.83,2.52-1.91,3.01l2.95,4.42h-3.42Zm-2.96-6.18h1.2c.62.01,1.19-.42,1.19-1.1s-.57-1.11-1.19-1.11h-1.2v2.21Z"/>
        <path class="cls-5" d="m32.58,28.14h-4.12l-.56,1.29h-3.2l5.12-11.16.7-1.62,5.81,12.78h-3.21l-.55-1.29Zm-.93-2.14l-1.13-2.61-1.13,2.61h2.26Z"/>
        <path class="cls-5" d="m37.1,18.41h4.16c2.27,0,4.16,1.71,4.16,3.86s-1.85,3.91-4.16,3.91h-1.24v3.25h-2.93v-11.02Zm5.5,3.88c0-.67-.56-1.18-1.34-1.18h-1.24v2.37h1.24c.79.01,1.34-.52,1.34-1.2Z"/>
        <path class="cls-5" d="m55.79,18.41v11.02h-2.92v-4.15h-3.27v4.15h-2.93v-11.02h2.93v4.14h3.27v-4.14h2.92Z"/>
        <path class="cls-5" d="m57.23,23.93c0-3.31,2.62-5.82,6.05-5.82s6.05,2.51,6.05,5.82-2.62,5.78-6.06,5.78-6.04-2.5-6.04-5.78Zm9.14-.02c0-1.7-1.34-3.01-3.09-3.01s-3.09,1.31-3.09,3.01,1.34,3,3.09,3,3.09-1.31,3.09-3Z"/>
        <path class="cls-5" d="m77.91,26.68v2.75h-7.14v-11.02h2.93v8.27h4.22Z"/>
        <path class="cls-5" d="m84.65,21.14h-2.64v8.29h-2.93v-8.29h-2.65v-2.73h8.22v2.73Z"/>
      </g>
      <path class="cls-5" d="m13.57,21.14h-2.64v8.29h-2.93v-8.29h-2.65v-2.73h8.22v2.73Z"/>
      <path class="cls-5" d="m20.7,29.43l-2.95-4.79v4.79h-2.93v-11.02s4.17,0,4.17,0c2.38,0,4.08,1.61,4.08,3.58,0,1.37-.83,2.52-1.91,3.01l2.95,4.42h-3.42Zm-2.96-6.18h1.2c.62.01,1.19-.42,1.19-1.1s-.57-1.11-1.19-1.11h-1.2v2.21Z"/>
      <path class="cls-5" d="m32.58,28.14h-4.12l-.56,1.29h-3.2l5.12-11.16.7-1.62,5.81,12.78h-3.21l-.55-1.29Zm-.93-2.14l-1.13-2.61-1.13,2.61h2.26Z"/>
      <path class="cls-5" d="m37.1,18.41h4.16c2.27,0,4.16,1.71,4.16,3.86s-1.85,3.91-4.16,3.91h-1.24v3.25h-2.93v-11.02Zm5.5,3.88c0-.67-.56-1.18-1.34-1.18h-1.24v2.37h1.24c.79.01,1.34-.52,1.34-1.2Z"/>
      <path class="cls-4" d="m55.79,18.41v11.02h-2.92v-4.15h-3.27v4.15h-2.93v-11.02h2.93v4.14h3.27v-4.14h2.92Z"/>
      <path class="cls-4" d="m57.23,23.93c0-3.31,2.62-5.82,6.05-5.82s6.05,2.51,6.05,5.82-2.62,5.78-6.06,5.78-6.04-2.5-6.04-5.78Zm9.14-.02c0-1.7-1.34-3.01-3.09-3.01s-3.09,1.31-3.09,3.01,1.34,3,3.09,3,3.09-1.31,3.09-3Z"/>
      <path class="cls-4" d="m77.91,26.68v2.75h-7.14v-11.02h2.93v8.27h4.22Z"/>
      <path class="cls-4" d="m84.65,21.14h-2.64v8.29h-2.93v-8.29h-2.65v-2.73h8.22v2.73Z"/>
      <circle class="cls-3" cx="8.25" cy="17.27" r="1.66"/>
      <circle class="cls-3" cx="8.25" cy="17.27" r="1.66"/>
      <circle class="cls-3" cx="8.25" cy="17.27" r="1.66"/>
      <circle class="cls-4" cx="8.25" cy="17.27" r="1.66"/>
    </g>
  </g>
</svg>