<?xml version="1.0" encoding="utf-8"?>
<!-- Generator: Adobe Illustrator 26.5.3, SVG Export Plug-In . SVG Version: 6.00 Build 0)  -->
<svg version="1.1" id="Layer_1" xmlns="http://www.w3.org/2000/svg" xmlns:xlink="http://www.w3.org/1999/xlink" x="0px" y="0px"
	 viewBox="0 0 183.75 184.87" style="enable-background:new 0 0 183.75 184.87;" xml:space="preserve">
<style type="text/css">
	.st0{fill:#222028;}
</style>
<g>
	<ellipse class="st0" cx="114.8" cy="102.56" rx="2.7" ry="2.79"/>
	<ellipse class="st0" cx="103.93" cy="106.12" rx="5.26" ry="5.42"/>
	<path class="st0" d="M113.42,57.64h-44.9c-1.06,0-1.92,0.64-1.92,1.43v35c0,0.79,0.86,1.43,1.92,1.43h44.9
		c1.06,0,1.92-0.64,1.92-1.43v-35C115.34,58.28,114.48,57.64,113.42,57.64z"/>
	<ellipse class="st0" cx="78.02" cy="106.02" rx="5.26" ry="5.42"/>
	<ellipse class="st0" cx="67.14" cy="102.56" rx="2.7" ry="2.79"/>
	<path class="st0" d="M91.62,22.04c-35.92,0-65.05,30.05-65.05,67.13c0,37.07,29.12,67.13,65.05,67.13
		c35.92,0,65.05-30.05,65.05-67.13C156.66,52.1,127.54,22.04,91.62,22.04z M56.04,86.73c0,1.34-1.06,2.43-2.36,2.43h-2
		c-1.3,0-2.36-1.09-2.36-2.43V66.15c0-1.34,1.06-2.43,2.36-2.43h2c1.3,0,2.36,1.09,2.36,2.43V86.73z M123.96,115.55
		c0,2.13-1.68,3.86-3.74,3.86H117v9.4c0,1.29-1.01,2.33-2.26,2.33h-6.59c-1.25,0-2.26-1.04-2.26-2.33v-9.4H77.04v9.4
		c0,1.29-1.01,2.33-2.26,2.33H68.2c-1.25,0-2.26-1.04-2.26-2.33v-9.4h-4.21c-2.07,0-3.74-1.73-3.74-3.86V52.52
		c0-2.13,1.68-3.86,3.74-3.86h58.5c2.07,0,3.74,1.73,3.74,3.86V115.55z M132.49,86.73c0,1.34-1.06,2.43-2.36,2.43h-2
		c-1.3,0-2.36-1.09-2.36-2.43V66.15c0-1.34,1.06-2.43,2.36-2.43h2c1.3,0,2.36,1.09,2.36,2.43V86.73z"/>
	<path class="st0" d="M118.22,52.32h-54.5c-1.29,0-2.33,1.08-2.33,2.4v58.63c0,1.33,1.04,2.4,2.33,2.4h54.5
		c1.29,0,2.33-1.08,2.33-2.4V54.72C120.55,53.4,119.51,52.32,118.22,52.32z M67.14,106.02c-1.85,0-3.35-1.55-3.35-3.46
		c0-1.91,1.5-3.46,3.35-3.46c1.85,0,3.35,1.55,3.35,3.46C70.5,104.47,69,106.02,67.14,106.02z M78.02,112.76
		c-3.61,0-6.53-3.02-6.53-6.74c0-3.72,2.92-6.74,6.53-6.74s6.53,3.02,6.53,6.74C84.55,109.74,81.62,112.76,78.02,112.76z
		 M103.93,112.85c-3.61,0-6.53-3.02-6.53-6.74c0-3.72,2.92-6.74,6.53-6.74c3.61,0,6.53,3.02,6.53,6.74
		C110.45,109.84,107.53,112.85,103.93,112.85z M114.8,106.02c-1.85,0-3.35-1.55-3.35-3.46c0-1.91,1.5-3.46,3.35-3.46
		c1.85,0,3.35,1.55,3.35,3.46C118.15,104.47,116.65,106.02,114.8,106.02z M118.15,95.39c0,1.27-1.38,2.31-3.09,2.31H66.87
		c-1.7,0-3.09-1.03-3.09-2.31V57.76c0-1.27,1.38-2.31,3.09-2.31h48.19c1.7,0,3.09,1.03,3.09,2.31V95.39z"/>
</g>
</svg>
