<?xml version="1.0" encoding="utf-8"?>
<!-- Generator: Adobe Illustrator 26.5.3, SVG Export Plug-In . SVG Version: 6.00 Build 0)  -->
<svg version="1.1" xmlns="http://www.w3.org/2000/svg" xmlns:xlink="http://www.w3.org/1999/xlink" x="0px" y="0px"
	 viewBox="0 0 283.46 283.46" style="enable-background:new 0 0 283.46 283.46;" xml:space="preserve">
<style type="text/css">
	.st0{display:none;}
	.st1{fill:#181926;}
</style>
<g id="Layer_1" class="st0">
</g>
<g id="Layer_2" class="st0">
</g>
<g id="Layer_3">
	<g>
		<path class="st1" d="M177.09,125.88c0.93,0,1.84,0.11,2.7,0.32c1.85,0.03,4.5-0.13,7.51-1.04c2.56-0.77,4.58-1.84,6-2.74
			c0.93-0.74,2.3-2.01,3.43-3.95c0.91-1.54,1.29-2.87,1.55-3.77c0.37-1.33,0.79-3.4,0.68-6c-0.29-1.71-0.67-3.55-1.2-5.48
			c-0.23-0.84-0.47-1.65-0.72-2.44l-27.61,25.1H177.09z"/>
		<path class="st1" d="M217.01,82.63l-17.08,15.53c1.78,1.59,3.56,3.68,4.89,6.41c0.74,1.52,1.21,2.99,1.51,4.31
			c0.77,1.81,1.58,4.13,2.09,6.89c0.41,2.16,0.55,4.11,0.56,5.76c-0.02,1.57-0.24,3.92-1.21,6.58c-0.93,2.55-2.2,4.43-3.15,5.63
			c-0.47,0.89-1.5,2.54-3.44,3.88c-1.45,1-2.85,1.44-3.76,1.64c-1.03,0.04-2.25,0-3.6-0.21c-2.07-0.31-3.77-0.9-5.03-1.46v47.98
			c0,2.46-1.99,4.45-4.45,4.45h-4.15c-2.46,0-4.46-1.99-4.46-4.45v-23.32h-46.31l-2.05,1.86h3.52v21.33c0,2.53-2.2,4.58-4.92,4.58
			h-4.03c-2.72,0-4.92-2.05-4.92-4.58v-11.92l-2.39,2.17v10.01c0,2.39-1.93,4.32-4.31,4.32h-5.23c-1.63,0-3.03-0.91-3.76-2.24
			l-25.12,22.84c35.88,34.37,92.76,35.59,130.08,1.66C243.62,178.35,247.82,121.61,217.01,82.63z M172.48,186.1
			c0,2.16-1.88,3.92-4.2,3.92h-4.65c-2.33,0-4.21-1.75-4.21-3.92v-21.99h13.06V186.1z"/>
		<path class="st1" d="M100.78,168.82v-29.56v-1.68c0-1.04,0.14-2.04,0.39-3c-0.04-0.96-0.16-1.99-0.39-3.08
			c-0.32-1.48-0.78-2.74-1.25-3.77c-1.2-0.62-2.4-1.23-3.6-1.85H80.85c-0.44,0-1.69-0.05-2.85-0.94c-1.73-1.34-1.78-3.45-1.78-3.72
			c-0.4-2.92-0.8-5.83-1.2-8.75v-5.31c0.08-0.47,0.35-1.68,1.37-2.74c0.84-0.88,1.77-1.23,2.23-1.38c2.11-0.33,4.29-0.63,6.53-0.91
			c1.92-0.24,3.8-0.45,5.64-0.63c1.6-1.26,3.2-2.51,4.8-3.77c1.41-0.56,2.82-1.12,4.23-1.68c0.59-0.03,1.21-0.05,1.83-0.07
			c0.94-1.48,2.59-2.53,4.6-2.53h12.96c4.21,0,6.83,4.55,4.73,8.2l-4.4,7.62c0.1,0.82,0.17,1.61,0.22,2.36
			c0.1,1.24,0.44,3.33,1.71,5.54c0.78,1.35,1.68,2.35,2.41,3.03c0.53,0.87,1.38,2.01,2.65,3.12c1.63,1.43,3.28,2.18,4.37,2.57h17.11
			l59.25-53.86c-35.92-33.66-92.25-34.62-129.31-0.93C40.9,104.78,36.5,160.95,66.59,199.9L100.78,168.82z"/>
		<path class="st1" d="M142,27.07c-63.23,0-114.48,51.25-114.48,114.48S78.77,256.03,142,256.03s114.48-51.25,114.48-114.48
			S205.23,27.07,142,27.07z M212.62,219.24c-42.91,39-109.31,35.84-148.31-7.07c-39-42.91-35.84-109.31,7.07-148.31
			c42.91-39,109.31-35.84,148.31,7.07S255.53,180.23,212.62,219.24z"/>
	</g>
</g>
</svg>
