<?xml version="1.0" encoding="utf-8"?>
<!-- Generator: Adobe Illustrator 26.5.3, SVG Export Plug-In . SVG Version: 6.00 Build 0)  -->
<svg version="1.1" id="Layer_1" xmlns="http://www.w3.org/2000/svg" xmlns:xlink="http://www.w3.org/1999/xlink" x="0px" y="0px"
	 viewBox="0 0 183.75 184.87" style="enable-background:new 0 0 183.75 184.87;" xml:space="preserve">
<style type="text/css">
	.st0{fill:#222028;}
</style>
<path class="st0" d="M91.88,33c-32.82,0-59.43,26.61-59.43,59.43s26.61,59.43,59.43,59.43s59.43-26.61,59.43-59.43
	S124.7,33,91.88,33z M39.82,93.04c-0.01,0.46-0.4,0.82-0.86,0.81l-3.05-0.09c-0.46-0.01-0.82-0.4-0.81-0.86l0-0.12
	c0.01-0.46,0.4-0.82,0.86-0.81l3.05,0.09c0.46,0.01,0.82,0.4,0.81,0.86L39.82,93.04z M42.45,64.51l0.06-0.1
	c0.23-0.4,0.74-0.53,1.14-0.3l2.64,1.52c0.4,0.23,0.53,0.74,0.3,1.14l-0.06,0.1c-0.23,0.4-0.74,0.53-1.14,0.3l-2.64-1.52
	C42.36,65.42,42.22,64.91,42.45,64.51z M46.76,120l-2.64,1.52c-0.4,0.23-0.91,0.09-1.14-0.3l-0.06-0.1c-0.23-0.4-0.09-0.91,0.3-1.14
	l2.64-1.52c0.4-0.23,0.91-0.09,1.14,0.3l0.06,0.1C47.29,119.26,47.16,119.77,46.76,120z M117.14,45.95l1.52-2.64
	c0.23-0.4,0.74-0.53,1.14-0.3l0.1,0.06c0.4,0.23,0.53,0.74,0.3,1.14l-1.52,2.64c-0.23,0.4-0.74,0.53-1.14,0.3l-0.1-0.06
	C117.04,46.86,116.91,46.35,117.14,45.95z M90.51,36.5c0-0.46,0.37-0.83,0.83-0.83h0.12c0.46,0,0.83,0.37,0.83,0.83v3.05
	c0,0.46-0.37,0.83-0.83,0.83h-0.12c-0.46,0-0.83-0.37-0.83-0.83V36.5z M63.03,43.54l0.1-0.06c0.4-0.23,0.91-0.09,1.14,0.3l1.52,2.64
	c0.23,0.4,0.09,0.91-0.3,1.14l-0.1,0.06c-0.4,0.23-0.91,0.09-1.14-0.3l-1.52-2.64C62.5,44.28,62.63,43.77,63.03,43.54z
	 M66.62,138.92l-1.52,2.64c-0.23,0.4-0.74,0.53-1.14,0.3l-0.1-0.06c-0.4-0.23-0.53-0.74-0.3-1.14l1.52-2.64
	c0.23-0.4,0.74-0.53,1.14-0.3l0.1,0.06C66.71,138.01,66.85,138.52,66.62,138.92z M93.24,148.37c0,0.46-0.37,0.83-0.83,0.83h-0.12
	c-0.46,0-0.83-0.37-0.83-0.83v-3.05c0-0.46,0.37-0.83,0.83-0.83h0.12c0.46,0,0.83,0.37,0.83,0.83V148.37z M93.98,90.54
	c0,0.86-0.71,1.57-1.57,1.57h-1.07c-0.86,0-1.57-0.71-1.57-1.57V47.41c0-0.86,0.71-1.57,1.57-1.57h1.07c0.86,0,1.57,0.71,1.57,1.57
	V90.54z M95.77,95.15l-0.88-1.37c-0.37-0.58-0.2-1.35,0.38-1.73l21.49-13.81c0.58-0.37,1.35-0.2,1.73,0.38l0.88,1.37
	c0.37,0.58,0.2,1.35-0.38,1.73L97.5,95.53C96.92,95.9,96.14,95.73,95.77,95.15z M120.7,141.37l-0.1,0.06
	c-0.4,0.23-0.91,0.09-1.14-0.3l-1.52-2.64c-0.23-0.4-0.09-0.91,0.3-1.14l0.1-0.06c0.4-0.23,0.91-0.09,1.14,0.3l1.52,2.64
	C121.23,140.63,121.09,141.14,120.7,141.37z M136.75,66.05l-0.06-0.1c-0.23-0.4-0.09-0.91,0.3-1.14l2.64-1.52
	c0.4-0.23,0.91-0.09,1.14,0.3l0.06,0.1c0.23,0.4,0.09,0.91-0.3,1.14l-2.64,1.52C137.49,66.58,136.98,66.45,136.75,66.05z
	 M141.34,120.36l-0.06,0.1c-0.23,0.4-0.74,0.53-1.14,0.3l-2.64-1.52c-0.4-0.23-0.53-0.74-0.3-1.14l0.06-0.1
	c0.23-0.4,0.74-0.53,1.14-0.3l2.64,1.52C141.43,119.45,141.57,119.96,141.34,120.36z M147.78,92.9l-3.05-0.09
	c-0.46-0.01-0.82-0.4-0.81-0.86l0-0.12c0.01-0.46,0.4-0.82,0.86-0.81l3.05,0.09c0.46,0.01,0.82,0.4,0.81,0.86l0,0.12
	C148.63,92.55,148.24,92.91,147.78,92.9z"/>
</svg>
