<?xml version="1.0" encoding="utf-8"?>
<!-- Generator: Adobe Illustrator 26.5.3, SVG Export Plug-In . SVG Version: 6.00 Build 0)  -->
<svg version="1.1" id="Layer_1" xmlns="http://www.w3.org/2000/svg" xmlns:xlink="http://www.w3.org/1999/xlink" x="0px" y="0px"
	 viewBox="0 0 183.75 184.87" style="enable-background:new 0 0 183.75 184.87;" xml:space="preserve">
<style type="text/css">
	.st0{fill:#222028;}
</style>
<path class="st0" d="M95.04,32.36c-34.49,0-62.44,27.96-62.44,62.44s27.96,62.44,62.44,62.44c34.49,0,62.44-27.96,62.44-62.44
	S129.52,32.36,95.04,32.36z M76.78,128.16c0,2.95-2.41,5.36-5.36,5.36H68.5c-2.95,0-5.36-2.41-5.36-5.36v-20.27
	c0-2.95,2.41-5.36,5.36-5.36h2.92c2.95,0,5.36,2.41,5.36,5.36V128.16z M125.57,128.16c0,2.95-2.41,5.36-5.36,5.36h-2.92
	c-2.95,0-5.36-2.41-5.36-5.36v-20.27c0-2.95,2.41-5.36,5.36-5.36h2.92c2.95,0,5.36,2.41,5.36,5.36V128.16z M133.27,129.06
	c0,1.43-1.17,2.6-2.6,2.6h0c-1.43,0-2.6-1.17-2.6-2.6v-22.08c0-1.43,1.17-2.6,2.6-2.6h0c1.43,0,2.6,1.17,2.6,2.6v5.63
	c2.02-4.87,3.15-10.2,3.15-15.8c0-10.07-3.61-19.3-9.61-26.47c-0.68,1.39-1.38,2.76-2.12,4.11c-6.32-7.64-15.19-12.99-25.26-14.63
	c-1.14-0.21-2.51-0.38-4.07-0.39c-1.75-0.02-3.28,0.16-4.52,0.39C80.77,61.46,71.9,66.8,65.58,74.44c-0.74-1.35-1.44-2.72-2.12-4.11
	c-5.99,7.17-9.61,16.39-9.61,26.47c0,3.9,0.55,7.67,1.56,11.25v-1.07c0-1.43,1.17-2.6,2.6-2.6s2.6,1.17,2.6,2.6v22.08
	c0,1.43-1.17,2.6-2.6,2.6s-2.6-1.17-2.6-2.6v-8.84c-4.06-6.86-6.4-14.87-6.4-23.42c0-12.09,4.66-23.08,12.27-31.31
	c-0.55-1.05-1.09-2.1-1.6-3.17c8.1-9.02,19.53-14.84,32.29-15.4c0.97-0.08,2.02-0.13,3.14-0.13c1.14,0,2.21,0.05,3.19,0.13
	c12.76,0.56,24.18,6.38,32.29,15.4c-0.51,1.07-1.05,2.12-1.6,3.17c7.61,8.22,12.27,19.22,12.27,31.31c0,9.61-2.96,18.51-7.98,25.9
	V129.06z"/>
</svg>
