<?xml version="1.0" encoding="utf-8"?>
<!-- Generator: Adobe Illustrator 26.5.3, SVG Export Plug-In . SVG Version: 6.00 Build 0)  -->
<svg version="1.1" id="Layer_1" xmlns="http://www.w3.org/2000/svg" xmlns:xlink="http://www.w3.org/1999/xlink" x="0px" y="0px"
	 viewBox="0 0 183.75 184.87" style="enable-background:new 0 0 183.75 184.87;" xml:space="preserve">
<style type="text/css">
	.st0{fill:#222028;}
</style>
<path class="st0" d="M82.31,123.07c-0.27-0.09-0.61-0.24-0.97-0.48c-0.52-0.35-0.86-0.75-1.07-1.03c-0.26-0.5-0.53-1-0.79-1.5
	C69.65,101.53,59.82,83,50,64.46c-0.2-0.39-0.39-0.78-0.59-1.16c-0.02-0.06-0.22-0.68,0.19-1.23c0.4-0.55,1.04-0.56,1.11-0.56
	c0.35-0.02,0.8-0.01,1.31,0.09c0.78,0.16,1.37,0.46,1.75,0.7c0.98,0.47,1.79,0.93,2.42,1.31c0.59,0.36,1.48,0.9,2.55,1.74
	c0.72,0.56,1.29,1.08,1.7,1.48c1.02,0.98,1.85,1.84,2.46,2.48c1.08,1.14,2.41,2.55,3.94,4.52c0.74,0.96,1.32,1.79,1.72,2.37
	c0.61,0.89,1.22,1.77,1.83,2.66c1.96,2.84,3.92,5.69,5.87,8.53c2.98,4.98,5.95,9.95,8.93,14.93l3.32,6.54c0,0,0.78,1.54,0.78,1.54
	c0,0,0.84,1.66,0.84,1.66c0.19,0.42,0.44,1.06,0.52,1.89c0.02,0.21,0.05,0.52,0.01,0.88c-0.04,0.38-0.19,1.16-0.87,2.01
	c0,0-0.29,0.68-0.29,0.68c0,0-0.59,1.37-0.59,1.37c0,0-0.2,0.89-0.2,0.89c0,0-0.18,0.81-0.18,0.81c-0.02,0.42,0.02,0.91,0.2,1.42
	c0.22,0.62,0.56,1,0.62,1.08c0.93,1.13,9.64,17.78,18.99,35.54c11.37-2.82,21.62-8.49,29.94-16.21
	c-6.01-10.94-12.02-21.88-18.03-32.82c-0.27-0.51-0.56-0.91-0.79-1.19c-0.21-0.25-0.66-0.76-1.35-1.24
	c-0.37-0.26-0.7-0.43-0.95-0.55c-0.44-0.24-1.05-0.52-1.8-0.71c-0.61-0.15-1.15-0.2-1.58-0.21c-0.72,0.01-1.56-0.03-2.5-0.18
	c-1.14-0.18-2.11-0.47-2.87-0.76c-0.53-0.3-1.1-0.67-1.7-1.13c-0.42-0.32-0.8-0.64-1.14-0.96c-0.21-0.25-0.53-0.64-0.93-1.11
	c-0.9-1.08-1.09-1.29-1.38-1.66c-0.34-0.44-0.82-1.11-1.3-2c-0.38-0.73-0.75-1.48-1.13-2.25c-0.35-0.7-0.68-1.4-1-2.09
	c-4.65-9.96-9.3-19.92-13.96-29.88l0.87-0.56c4.67,9.09,9.33,18.18,14,27.26c0.17,0.26,0.33,0.52,0.5,0.78
	c0.13,0.21,0.26,0.41,0.39,0.62c0.13,0.12,0.34,0.28,0.63,0.4c0.23,0.1,0.44,0.14,0.6,0.16c0.14-0.01,0.67-0.07,1.04-0.52
	c0.16-0.19,0.24-0.38,0.28-0.52c0-0.36-0.06-0.64-0.12-0.83c-0.06-0.2-0.13-0.36-0.24-0.57c-0.19-0.41-0.37-0.7-0.39-0.72
	c-0.23-0.38-4.52-8.35-14.71-27.35c0.27-0.18,0.55-0.35,0.82-0.53c5.63,8.75,11.27,17.51,16.9,26.26c0.17,0.3,0.46,0.71,0.9,1.09
	c0.27,0.23,0.53,0.4,0.75,0.52c0.06,0.02,0.2,0.04,0.38,0.03l0.64-0.41c0.09-0.16,0.13-0.3,0.14-0.36
	c-0.01-0.26-0.06-0.57-0.15-0.91c-0.16-0.57-0.4-1-0.6-1.28c-5.51-8.83-11.02-17.67-16.53-26.5c0.27-0.18,0.55-0.35,0.82-0.53
	c12.82,17.3,18.19,24.57,18.43,24.94c0.01,0.02,0.2,0.3,0.48,0.65c0.15,0.18,0.26,0.31,0.41,0.45c0.15,0.13,0.38,0.31,0.7,0.46
	c0.14,0.02,0.35,0.03,0.58-0.04c0.56-0.16,0.84-0.62,0.9-0.74c0.05-0.15,0.1-0.36,0.11-0.61c0.01-0.32-0.05-0.58-0.1-0.75
	c-0.13-0.21-0.26-0.41-0.39-0.62c-0.17-0.26-0.33-0.52-0.5-0.78C107.2,74.08,100.99,66,94.77,57.91l0.87-0.56
	c7.01,8.44,14.02,16.88,21.02,25.32c0.48,0.59,0.97,1.18,1.46,1.79c0.53,0.66,1.05,1.32,1.55,1.98c0.6,0.82,0.99,1.53,1.25,2.03
	c0.21,0.42,0.32,0.68,0.91,1.96c0.26,0.56,0.47,1.02,0.61,1.32c0.14,0.44,0.27,0.92,0.38,1.45c0.16,0.73,0.25,1.42,0.3,2.03
	c-0.06,0.83-0.2,1.84-0.52,2.95c-0.26,0.92-0.58,1.72-0.89,2.37c-0.17,0.4-0.35,0.92-0.47,1.54c-0.15,0.77-0.15,1.44-0.12,1.95
	c0,0.28,0.02,0.66,0.1,1.1c0.14,0.84,0.41,1.46,0.55,1.76c0.16,0.33,0.39,0.76,0.74,1.22c6.99,9.64,13.97,19.27,20.96,28.91
	c10.34-11.96,16.6-27.54,16.6-44.59c0-37.66-30.53-68.19-68.19-68.19S23.68,54.77,23.68,92.43s30.53,68.19,68.19,68.19
	c2.66,0,5.29-0.16,7.87-0.45C93.93,147.81,88.12,135.44,82.31,123.07z"/>
</svg>
