<?xml version="1.0" encoding="utf-8"?>
<!-- Generator: Adobe Illustrator 26.5.3, SVG Export Plug-In . SVG Version: 6.00 Build 0)  -->
<svg version="1.1" id="Layer_1" xmlns="http://www.w3.org/2000/svg" xmlns:xlink="http://www.w3.org/1999/xlink" x="0px" y="0px"
	 viewBox="0 0 183.75 184.87" style="enable-background:new 0 0 183.75 184.87;" xml:space="preserve">
<style type="text/css">
	.st0{fill:#222028;}
</style>
<g>
	<path class="st0" d="M121.36,89.84c-3.51,0-6.35,2.84-6.35,6.35c0,3.51,2.84,6.35,6.35,6.35c3.51,0,6.35-2.84,6.35-6.35
		C127.7,92.68,124.86,89.84,121.36,89.84z M121.36,100.59c-2.43,0-4.4-1.97-4.4-4.4c0-2.43,1.97-4.4,4.4-4.4
		c2.43,0,4.4,1.97,4.4,4.4C125.76,98.62,123.79,100.59,121.36,100.59z"/>
	<path class="st0" d="M74.5,96.19c0-3.51-2.84-6.35-6.35-6.35c-3.51,0-6.35,2.84-6.35,6.35c0,3.51,2.84,6.35,6.35,6.35
		C71.66,102.53,74.5,99.69,74.5,96.19z M63.75,96.19c0-2.43,1.97-4.4,4.4-4.4c2.43,0,4.4,1.97,4.4,4.4c0,2.43-1.97,4.4-4.4,4.4
		C65.72,100.59,63.75,98.62,63.75,96.19z"/>
	<path class="st0" d="M65.05,77.43h59.2h1.57c-0.03-0.11-0.07-0.21-0.11-0.31c-2.03-4.75-4.06-9.5-6.09-14.25
		c-0.62-1.46-2.17-2.42-3.89-2.42H74.3c-1.67,0-3.18,0.91-3.83,2.31l-6.62,14.1c-0.09,0.19-0.15,0.39-0.2,0.58H65.05z"/>
	<path class="st0" d="M104.76,91.47H82.73c-1.35,0-2.45,1.1-2.45,2.45v4.55c0,1.35,1.1,2.45,2.45,2.45h22.03
		c1.35,0,2.45-1.1,2.45-2.45v-4.55C107.2,92.56,106.11,91.47,104.76,91.47z"/>
	<path class="st0" d="M94.55,28.17c-35.49,0-64.26,28.77-64.26,64.26s28.77,64.26,64.26,64.26s64.26-28.77,64.26-64.26
		S130.04,28.17,94.55,28.17z M133.05,103.08c0,3.54-2.09,6.58-5.1,7.98c-0.08,0.08-0.17,0.15-0.26,0.22v3.66v5.75
		c0,1.27-1.03,2.3-2.3,2.3h-7.02c-1.27,0-2.3-1.03-2.3-2.3v-5.75v-3.05H75.45v2.96v5.84c0,1.27-1.03,2.3-2.3,2.3h-7.02
		c-1.27,0-2.3-1.03-2.3-2.3v-5.84v-3.05c-4.29-0.59-7.59-4.26-7.59-8.71V86.23c0-2.84,1.35-5.35,3.44-6.96
		c0.22-0.42,0.53-0.79,0.9-1.09c0.02-0.07,0.05-0.14,0.08-0.21l7.28-17.01c0.72-1.69,2.38-2.78,4.22-2.78h45.58
		c1.89,0,3.59,1.16,4.27,2.92c2.23,5.73,4.46,11.46,6.69,17.19c0.03,0.07,0.04,0.14,0.07,0.21c0.11,0.12,0.22,0.25,0.32,0.38
		c2.39,1.57,3.97,4.27,3.97,7.34V103.08z"/>
</g>
</svg>
