<?xml version="1.0" encoding="utf-8"?>
<!-- Generator: Adobe Illustrator 26.5.3, SVG Export Plug-In . SVG Version: 6.00 Build 0)  -->
<svg version="1.1" id="Layer_1" xmlns="http://www.w3.org/2000/svg" xmlns:xlink="http://www.w3.org/1999/xlink" x="0px" y="0px"
	 viewBox="0 0 183.75 184.87" style="enable-background:new 0 0 183.75 184.87;" xml:space="preserve">
<style type="text/css">
	.st0{fill:#222028;}
</style>
<g>
	<circle class="st0" cx="77.28" cy="101.37" r="5.56"/>
	<polygon class="st0" points="75.45,122 72.66,130.34 120.44,130.34 117.65,122 	"/>
	<path class="st0" d="M120.3,60.38H72.8c-1.12,0-2.03,0.52-2.03,1.16V89.9c0,0.64,0.91,1.16,2.03,1.16h47.51
		c1.12,0,2.03-0.52,2.03-1.16V61.54C122.33,60.9,121.42,60.38,120.3,60.38z"/>
	<path class="st0" d="M77.66,115.36l-1.44,4.32h40.65l-1.44-4.32c-0.03-0.09-0.04-0.17-0.06-0.26H77.72
		C77.7,115.19,77.69,115.28,77.66,115.36z"/>
	<circle class="st0" cx="114.89" cy="101.37" r="5.56"/>
	<path class="st0" d="M96.41,22.03c-38.01,0-68.82,30.81-68.82,68.82s30.81,68.82,68.82,68.82c38.01,0,68.82-30.81,68.82-68.82
		S134.42,22.03,96.41,22.03z M131.46,111.14c0,2.19-1.77,3.96-3.96,3.96h-5.96l7.8,23.37c0.46,1.38-0.28,2.87-1.66,3.33l-0.57,0.19
		c-1.38,0.46-2.87-0.28-3.33-1.66l-2.56-7.67H71.89l-2.56,7.67c-0.46,1.38-1.95,2.13-3.33,1.66l-0.57-0.19
		c-1.38-0.46-2.13-1.95-1.66-3.33l7.8-23.37H65.6c-2.19,0-3.96-1.77-3.96-3.96V46.51c0-2.19,1.77-3.96,3.96-3.96h61.9
		c2.19,0,3.96,1.77,3.96,3.96V111.14z"/>
	<path class="st0" d="M125.38,46.31H67.72c-1.36,0-2.46,1.1-2.46,2.46v60.11c0,1.36,1.1,2.46,2.46,2.46h57.66
		c1.36,0,2.46-1.1,2.46-2.46V48.77C127.84,47.41,126.74,46.31,125.38,46.31z M82.59,50.95c0-1.36,1.1-2.46,2.46-2.46h22.13
		c1.36,0,2.46,1.1,2.46,2.46v2.46c0,1.36-1.1,2.46-2.46,2.46H85.05c-1.36,0-2.46-1.1-2.46-2.46V50.95z M77.28,108.27
		c-3.81,0-6.91-3.09-6.91-6.91c0-3.81,3.09-6.91,6.91-6.91c3.81,0,6.91,3.09,6.91,6.91C84.19,105.18,81.1,108.27,77.28,108.27z
		 M114.89,108.27c-3.81,0-6.91-3.09-6.91-6.91c0-3.81,3.09-6.91,6.91-6.91c3.81,0,6.91,3.09,6.91,6.91
		C121.8,105.18,118.71,108.27,114.89,108.27z M125.31,90.96c0,1.03-1.46,1.87-3.26,1.87H71.05c-1.8,0-3.26-0.84-3.26-1.87V60.47
		c0-1.03,1.46-1.87,3.26-1.87h50.99c1.8,0,3.26,0.84,3.26,1.87V90.96z"/>
</g>
</svg>
