<?xml version="1.0" encoding="utf-8"?>
<!-- Generator: Adobe Illustrator 26.5.3, SVG Export Plug-In . SVG Version: 6.00 Build 0)  -->
<svg version="1.1" xmlns="http://www.w3.org/2000/svg" xmlns:xlink="http://www.w3.org/1999/xlink" x="0px" y="0px"
	 viewBox="0 0 841.89 595.28" style="enable-background:new 0 0 841.89 595.28;" xml:space="preserve">
<style type="text/css">
	.st0{opacity:0.29;fill:#8283BF;}
	.st1{fill:none;stroke:#171826;stroke-width:2;stroke-miterlimit:10;}
	.st2{fill:#494EA1;}
	.st3{fill:#AB1F23;}
	.st4{display:none;}
</style>
<g id="Layer_3">
	<rect x="107.18" y="51.08" class="st0" width="142.89" height="140.6"/>
	<circle class="st0" cx="177.44" cy="277.64" r="37.82"/>
	<path class="st0" d="M377.72,215.59h-5.23c0.38,0.58,0.63,1.17,0.75,1.77C374.97,217.45,376.58,216.95,377.72,215.59z"/>
	<path class="st0" d="M387.32,215.59c0.48,1.21,0.48,2.64-0.32,4.11c-0.73,1.36-1.61,2.5-2.59,3.46c0.29,1.76-0.35,3.61-2.41,4.73
		c-9.49,5.15-20.55,1.64-24.45-7.47c-1.31-1.07-2.25-2.6-2.56-4.66c-0.01-0.06-0.01-0.11-0.01-0.17H342.1v48.18h199.03v-48.18
		H387.32z"/>
	
		<rect x="539.31" y="344.3" transform="matrix(0.7071 -0.7071 0.7071 0.7071 -102.0588 522.3251)" class="st0" width="80.32" height="80.12"/>
</g>
<g id="Layer_2">
	<rect x="107.18" y="51.08" class="st1" width="142.89" height="140.6"/>
	<rect x="102.25" y="44.66" class="st1" width="153.1" height="153.1"/>
	<polyline class="st1" points="388.4,215.59 541.13,215.59 541.13,264.84 342.1,264.84 342.1,215.59 355.71,215.59 	"/>
	<polyline class="st1" points="387.49,210.54 545.26,210.54 545.26,269.43 337.49,269.43 337.49,210.54 355.71,210.54 	"/>
	<path class="st1" d="M547.26,407.58"/>
	<polyline class="st1" points="547.26,407.58 523.97,384.29 580.09,328.18 636.2,384.29 580.09,440.4 568.9,429.21 	"/>
	<path class="st1" d="M145.26,297.21c-3.47-5.7-5.48-12.4-5.48-19.57c0-20.8,16.86-37.66,37.66-37.66s37.66,16.86,37.66,37.66
		s-16.86,37.66-37.66,37.66c-1.69,0-3.35-0.11-4.98-0.33"/>
	<path class="st1" d="M145.26,297.21"/>
	<path class="st1" d="M172.46,314.97"/>
	<path class="st1" d="M141.6,300.84"/>
	<path class="st1" d="M141.6,300.84c-4.33-6.68-6.85-14.65-6.85-23.2c0-23.58,19.11-42.69,42.69-42.69s42.69,19.11,42.69,42.69
		s-19.11,42.69-42.69,42.69c-2.7,0-5.34-0.25-7.9-0.73"/>
	<polyline class="st1" points="216.71,294.4 239.14,317.29 246.63,324.93 272.78,297.64 481.95,297.64 481.95,287.78 433.62,287.78 
		433.62,269.43 	"/>
	<polyline class="st1" points="239.14,317.29 269.11,287.78 433.62,287.78 	"/>
	<polyline class="st1" points="510.39,269.43 510.39,287.78 510.39,299.24 580.09,299.24 619.11,336.86 631.95,324.93 	"/>
	<polyline class="st1" points="627.4,329.16 586.08,287.78 510.39,287.78 	"/>
	<path class="st1" d="M565.96,433.36l14.12,14.51c20.19-21.19,40.39-42.39,60.58-63.58c-6.88-7.09-13.76-14.19-20.64-21.28"/>
	<polyline class="st1" points="510.39,350.16 531.04,370.34 518.19,384.29 543.03,409.81 	"/>
	<line class="st1" x1="599.39" y1="343.74" x2="606.72" y2="350.16"/>
	<polyline class="st1" points="782.41,401.9 782.41,399.01 761.77,380.44 744.34,399.01 681.95,399.01 633.79,350.16 666.36,317.29 
		679.2,287.78 696.17,294.2 736.54,201.54 716.82,193.74 738.38,145.57 691.59,126.31 685.62,139.61 659.48,129.52 648.47,154.29 
		681.5,169.43 640.67,269.43 662.23,279.52 650.76,308.47 640.67,317.29 	"/>
	<polyline class="st1" points="640.67,384.29 716.36,461.63 782.41,461.63 782.41,449.18 	"/>
	<path class="st1" d="M586.08,329.16l-10.55-11.88h-57.8l31.19,32.88c10.23-9.43,20.46-18.85,30.69-28.28"/>
	<polyline class="st1" points="640.67,343.22 686.57,388.37 738,388.37 762.34,365.79 792.86,396.6 792.86,404.83 	"/>
	<polyline class="st1" points="667.37,458.89 677.31,468.94 684.51,461.63 694.11,471.34 688.63,476.49 703.03,490.2 737.31,490.2 
		737.31,461.63 	"/>
	<polyline class="st1" points="664.04,408.17 640.67,431.91 650.65,442 	"/>
	<polyline class="st1" points="354.34,317.29 366.69,317.29 481.95,317.29 	"/>
	<polyline class="st1" points="364.97,317.29 390.34,341.4 415.37,317.29 423.94,326.66 433.62,317.29 437.31,321.86 441.62,317.29 
		455.49,331.46 465.43,322.2 469.2,327 478.8,317.29 	"/>
	<path class="st1" d="M380.74,356.83l7.2,7.2l12.69-12.34l12.34,12.34l-6.17,6.17l20.23,19.89l6.59-5.8l5.07,5.8l13.71-13.03
		l-5.83-6.17l41.14-39.09l-8.91-8.91l-9.6,8.57l-4.46-4.8l-9.94,10.2l-13.18-13.97l-3.62,4.46l-4.38-4.46
		c-3.11,3.31-6.22,6.63-9.33,9.94c-2.97-3.31-5.94-6.63-8.91-9.94L380.74,356.83z"/>
	<path class="st1" d="M505.89,415.11"/>
	
		<rect x="479.02" y="342.81" transform="matrix(0.7071 -0.7071 0.7071 0.7071 -107.7649 452.804)" class="st1" width="27.36" height="27.36"/>
	<polyline class="st1" points="517.73,358.89 492.7,384.29 466.8,358.89 453.43,371.59 459.26,377.4 438.69,397.29 433.62,391.68 
		427.37,397.29 400.63,370.2 407.14,364.37 400.63,356.49 388.63,369.51 360.17,343.22 346.11,356.49 369.09,379.11 320.74,427.11 
		309.77,415.11 307.37,417.51 313.54,424.37 287.14,450.77 250.07,412.03 272.4,390.09 261.43,377.4 272.74,365.74 262.46,355.11 
		273.77,343.74 264.51,333.72 220.13,379.46 209.31,379.46 	"/>
	<polyline class="st1" points="288.86,400.71 326.23,364.03 280.29,317.29 342.1,317.29 	"/>
	<line class="st1" x1="306" y1="333.72" x2="322.8" y2="317.29"/>
	<polygon class="st1" points="298.46,399.01 320.06,420.6 363.52,379.46 339.26,356.49 370.11,327 363.52,320.33 325.2,320.33 
		306,339 332.4,364.71 	"/>
	<path class="st1" d="M278.57,323.57c14.17,13.83,28.34,27.66,42.51,41.49l-37.03,35.66l24,23.31l-20.57,21.26l-32.14-33.26
		l23.22-21.94l-12-12.69l12-11.31l-10.97-11.66l11.31-10.69c-3.09-3.34-6.17-6.68-9.26-10.02
		C272.63,330.34,275.6,326.96,278.57,323.57z"/>
	<path class="st1" d="M386.57,439.8"/>
	<line class="st1" x1="163.42" y1="237.32" x2="163.42" y2="197.75"/>
	<line class="st1" x1="192.51" y1="197.75" x2="192.51" y2="237.7"/>
	<path class="st1" d="M144.7,357.5l-4.92-4.44l2.68-2.9h64.46c3.19-3.26,6.39-6.51,9.58-9.77"/>
	<path class="st1" d="M144.7,357.5"/>
	<path class="st1" d="M149.66,361.97"/>
	<polyline class="st1" points="193.27,317.29 224.74,348.6 211.71,361.97 163.42,361.97 	"/>
	<polyline class="st1" points="132.16,420.6 172.46,379.11 172.46,361.97 	"/>
	<polyline class="st1" points="161.12,488.42 151.37,498.09 104.4,449.18 113.51,439.8 	"/>
	<path class="st1" d="M161.12,488.42"/>
	<line class="st1" x1="191.8" y1="457.97" x2="175.78" y2="473.87"/>
	<path class="st1" d="M191.8,457.97"/>
	<line class="st1" x1="218.33" y1="431.64" x2="207.75" y2="442.14"/>
	<polyline class="st1" points="224.74,374.7 237.43,387 227.83,397.63 233.69,403.17 	"/>
	<line class="st1" x1="172.46" y1="379.11" x2="188.06" y2="379.11"/>
	<path class="st1" d="M190.45,454.19"/>
	<line class="st1" x1="218.33" y1="426.53" x2="205.89" y2="438.87"/>
	<polyline class="st1" points="133.25,425.73 174.69,382.89 220.13,384.29 224.74,379.11 233.31,387.34 222.34,399.01 
		230.22,406.22 	"/>
	<line class="st1" x1="128.1" y1="431.06" x2="133.25" y2="425.73"/>
	<polyline class="st1" points="155.93,488.42 151.71,492.6 110.57,449.18 115.58,444 	"/>
	<path class="st1" d="M155.93,488.42"/>
	<line class="st1" x1="190.45" y1="454.19" x2="177.44" y2="467.09"/>
	<polyline class="st1" points="774.14,397.39 761.66,385.97 745.89,403.8 685.54,402.43 674.57,413.4 716.76,457.97 777.77,457.97 
		777.77,450.77 	"/>
</g>
<g id="Layer_4">
	<path class="st2" d="M157.35,290.04c-10.18,0-18.43,8.25-18.43,18.43c0,10.18,8.25,18.43,18.43,18.43s18.43-8.25,18.43-18.43
		C175.78,298.29,167.53,290.04,157.35,290.04z M151.86,297.6c0.07-0.1,0.13-0.21,0.2-0.31c0.02-0.02,0.13-0.13,0.31-0.13
		c0.17,0,0.27,0.11,0.29,0.13c4.95,3.41,9.89,6.83,14.84,10.24c0.26-0.4,0.52-0.8,0.78-1.19c0.05-0.08,0.15-0.11,0.23-0.08
		c0.07,0.02,0.12,0.09,0.13,0.16c0.6,1.18,1.19,2.36,1.79,3.55c0.06,0.09,0.06,0.2,0,0.29c-0.06,0.09-0.16,0.14-0.27,0.13
		c-1.29-0.12-2.58-0.25-3.87-0.37c-0.09,0.02-0.19-0.02-0.23-0.11c-0.04-0.08-0.02-0.19,0.05-0.25l0.7-1.08
		c-4.96-3.48-9.92-6.96-14.88-10.44c-0.04-0.02-0.09-0.05-0.12-0.11C151.74,297.91,151.76,297.74,151.86,297.6z M170.97,318.19h-9.1
		c-0.1,0-0.19-0.08-0.19-0.19v-0.68c0-0.1,0.08-0.19,0.19-0.19h0.63v-3.79h-7.69c-0.1,0-0.19-0.08-0.19-0.19v-0.68
		c0-0.1,0.08-0.19,0.19-0.19h0.63v-4.13h-7.63c-0.1,0-0.19-0.08-0.19-0.19v-0.68c0-0.1,0.08-0.19,0.19-0.19h0.63v-3.53h-6.3
		c-0.1,0-0.17-0.08-0.17-0.17v-0.71c0-0.1,0.08-0.17,0.17-0.17h7.7c0.1,0,0.17,0.08,0.17,0.17v0.71c0,0.1-0.08,0.17-0.17,0.17h-0.34
		v3.53h7.4c0.1,0,0.19,0.08,0.19,0.19v0.68c0,0.1-0.08,0.19-0.19,0.19h-0.41v4.13h7.4c0.1,0,0.19,0.08,0.19,0.19v0.68
		c0,0.1-0.08,0.19-0.19,0.19h-0.34v3.79h7.4c0.1,0,0.19,0.08,0.19,0.19v0.68C171.15,318.11,171.07,318.19,170.97,318.19z"/>
	<g>
		<path class="st2" d="M182.13,484.81l-11.99-8.66c-0.21-0.15-0.49-0.15-0.7,0l-11.99,8.66c-0.47,0.34-0.23,1.09,0.35,1.09h23.98
			C182.37,485.9,182.61,485.15,182.13,484.81z"/>
		<path class="st2" d="M169.54,460.2c-10.23,0-18.52,8.29-18.52,18.52s8.29,18.52,18.52,18.52c10.23,0,18.52-8.29,18.52-18.52
			S179.77,460.2,169.54,460.2z M183.18,486.7h-26.78c-1.08,0-1.53-1.39-0.65-2.02l13.26-9.58v-2.2c0-0.25,0.21-0.46,0.46-0.46h0.51
			c1.6-0.06,2.85-1.46,2.66-3.11c-0.15-1.26-1.17-2.28-2.43-2.43c-1.36-0.16-2.54,0.67-2.96,1.85c-0.05,0.14-0.18,0.24-0.33,0.24
			c-0.1,0.01-0.2,0.01-0.3,0.01c-0.13,0.01-0.23-0.12-0.2-0.24c0.43-1.65,2.01-2.84,3.84-2.65c1.65,0.17,2.97,1.49,3.16,3.14
			c0.21,1.9-1.08,3.55-2.83,3.9v1.94l13.26,9.58C184.72,485.32,184.27,486.7,183.18,486.7z"/>
	</g>
	<path class="st2" d="M200.69,431.06c-10.32,0-18.69,8.37-18.69,18.69s8.37,18.69,18.69,18.69s18.69-8.37,18.69-18.69
		S211.01,431.06,200.69,431.06z M196.86,439.14h0.01c0.2-1.78,1.71-3.16,3.54-3.16c1.93,0,3.5,1.54,3.57,3.45h0v2.33h-0.53v-2.25
		c0,0,0,0,0,0c-0.02-1.66-1.37-3-3.04-3c-1.57,0-2.86,1.19-3.02,2.71c0,0,0,0,0,0v2.54h-0.53V439.14z M208.02,461.14h-14.67
		c-0.42,0-0.74-0.36-0.69-0.78l2.17-17.61c0.04-0.35,0.34-0.61,0.69-0.61h9.96c0.34,0,0.64,0.25,0.69,0.59l2.55,17.61
		C208.77,460.76,208.45,461.14,208.02,461.14z"/>
	<path class="st2" d="M674.57,324.79c-10.18,0-18.43,8.25-18.43,18.43c0,10.18,8.25,18.43,18.43,18.43
		c10.18,0,18.43-8.25,18.43-18.43C693,333.04,684.75,324.79,674.57,324.79z M669.08,332.35c0.07-0.1,0.13-0.21,0.2-0.31
		c0.02-0.02,0.13-0.13,0.31-0.13c0.17,0,0.27,0.11,0.29,0.13c4.95,3.41,9.89,6.83,14.84,10.24c0.26-0.4,0.52-0.8,0.78-1.19
		c0.05-0.08,0.15-0.11,0.23-0.08c0.07,0.02,0.12,0.09,0.13,0.16c0.6,1.18,1.19,2.36,1.79,3.55c0.06,0.09,0.06,0.2,0,0.29
		c-0.06,0.09-0.16,0.14-0.27,0.13c-1.29-0.12-2.58-0.25-3.87-0.37c-0.09,0.02-0.19-0.02-0.23-0.11c-0.04-0.08-0.02-0.19,0.05-0.25
		l0.7-1.08c-4.96-3.48-9.92-6.96-14.88-10.44c-0.04-0.02-0.09-0.05-0.12-0.11C668.96,332.66,668.98,332.49,669.08,332.35z
		 M688.19,352.94h-9.1c-0.1,0-0.19-0.08-0.19-0.19v-0.68c0-0.1,0.08-0.19,0.19-0.19h0.63v-3.79h-7.69c-0.1,0-0.19-0.08-0.19-0.19
		v-0.68c0-0.1,0.08-0.19,0.19-0.19h0.63v-4.13h-7.63c-0.1,0-0.19-0.08-0.19-0.19v-0.68c0-0.1,0.08-0.19,0.19-0.19h0.63v-3.53h-6.3
		c-0.1,0-0.17-0.08-0.17-0.17v-0.71c0-0.1,0.08-0.17,0.17-0.17h7.7c0.1,0,0.17,0.08,0.17,0.17v0.71c0,0.1-0.08,0.17-0.17,0.17h-0.34
		v3.53h7.4c0.1,0,0.19,0.08,0.19,0.19v0.68c0,0.1-0.08,0.19-0.19,0.19h-0.41v4.13h7.4c0.1,0,0.19,0.08,0.19,0.19v0.68
		c0,0.1-0.08,0.19-0.19,0.19h-0.34v3.79h7.4c0.1,0,0.19,0.08,0.19,0.19v0.68C688.38,352.86,688.29,352.94,688.19,352.94z"/>
	<path class="st2" d="M230.68,402.04c-10.25,0-18.56,8.31-18.56,18.56s8.31,18.56,18.56,18.56c10.25,0,18.56-8.31,18.56-18.56
		S240.93,402.04,230.68,402.04z M230.68,409.07c1.51,0,2.73,1.22,2.73,2.73c0,1.51-1.22,2.73-2.73,2.73s-2.73-1.22-2.73-2.73
		C227.95,410.29,229.17,409.07,230.68,409.07z M234.72,415.22c-0.05,0.24-0.21,0.37-0.27,0.42c-0.11,0.1-0.22,0.22-0.33,0.36
		c-0.18,0.23-0.32,0.45-0.43,0.65c-0.1,0.3-0.2,0.67-0.26,1.11c-0.03,0.21-0.04,0.41-0.04,0.6v14.71c0,0.5-0.41,0.9-0.9,0.9h-3.65
		c-0.5,0-0.9-0.41-0.9-0.9v-15.92c0-0.11,0.02-0.21,0.05-0.3c0.01-0.06,0.02-0.12,0.03-0.18c0.02-0.11,0.08-0.3,0.24-0.49
		c0.21-0.25,0.46-0.34,0.57-0.37c0.43-0.08,0.78-0.11,1.03-0.12c0.34-0.02,0.56-0.01,0.95-0.05c0.28-0.03,0.5-0.07,0.66-0.11
		c0.19-0.06,0.39-0.12,0.58-0.18c0.37-0.11,0.74-0.23,1.11-0.34c0.12-0.05,0.25-0.1,0.39-0.15c0.19-0.06,0.38-0.11,0.54-0.15
		c0.05-0.01,0.2-0.05,0.36,0.02c0.15,0.06,0.23,0.16,0.26,0.2C234.74,414.99,234.75,415.1,234.72,415.22z"/>
	<path class="st2" d="M371.58,194.99c-10.33,0-18.7,8.37-18.7,18.7c0,10.33,8.37,18.7,18.7,18.7c10.33,0,18.7-8.37,18.7-18.7
		C390.28,203.36,381.91,194.99,371.58,194.99z M366.11,223.68c0,0.88-0.72,1.61-1.61,1.61h-0.87c-0.88,0-1.61-0.72-1.61-1.61v-6.07
		c0-0.88,0.72-1.61,1.61-1.61h0.87c0.88,0,1.61,0.72,1.61,1.61V223.68z M380.73,223.68c0,0.88-0.72,1.61-1.61,1.61h-0.87
		c-0.88,0-1.61-0.72-1.61-1.61v-6.07c0-0.88,0.72-1.61,1.61-1.61h0.87c0.88,0,1.61,0.72,1.61,1.61V223.68z M383.03,223.95
		c0,0.43-0.35,0.78-0.78,0.78h0c-0.43,0-0.78-0.35-0.78-0.78v-6.61c0-0.43,0.35-0.78,0.78-0.78h0c0.43,0,0.78,0.35,0.78,0.78v1.68
		c0.61-1.46,0.94-3.06,0.94-4.73c0-3.02-1.08-5.78-2.88-7.93c-0.2,0.42-0.41,0.83-0.63,1.23c-1.89-2.29-4.55-3.89-7.56-4.38
		c-0.34-0.06-0.75-0.11-1.22-0.12c-0.52-0.01-0.98,0.05-1.35,0.12c-3.02,0.49-5.67,2.09-7.56,4.38c-0.22-0.4-0.43-0.82-0.63-1.23
		c-1.8,2.15-2.88,4.91-2.88,7.93c0,1.17,0.16,2.3,0.47,3.37v-0.32c0-0.43,0.35-0.78,0.78-0.78s0.78,0.35,0.78,0.78v6.61
		c0,0.43-0.35,0.78-0.78,0.78s-0.78-0.35-0.78-0.78v-2.65c-1.22-2.06-1.92-4.45-1.92-7.01c0-3.62,1.39-6.91,3.67-9.38
		c-0.16-0.31-0.33-0.63-0.48-0.95c2.43-2.7,5.85-4.44,9.67-4.61c0.29-0.02,0.6-0.04,0.94-0.04c0.34,0,0.66,0.02,0.95,0.04
		c3.82,0.17,7.24,1.91,9.67,4.61c-0.15,0.32-0.32,0.64-0.48,0.95c2.28,2.46,3.67,5.76,3.67,9.38c0,2.88-0.89,5.54-2.39,7.76V223.95z
		"/>
	<path class="st2" d="M556.81,401.9c-10.33,0-18.7,8.37-18.7,18.7c0,10.33,8.37,18.7,18.7,18.7s18.7-8.37,18.7-18.7
		C575.51,410.27,567.14,401.9,556.81,401.9z M551.35,430.59c0,0.88-0.72,1.61-1.61,1.61h-0.87c-0.88,0-1.61-0.72-1.61-1.61v-6.07
		c0-0.88,0.72-1.61,1.61-1.61h0.87c0.88,0,1.61,0.72,1.61,1.61V430.59z M565.96,430.59c0,0.88-0.72,1.61-1.61,1.61h-0.87
		c-0.88,0-1.61-0.72-1.61-1.61v-6.07c0-0.88,0.72-1.61,1.61-1.61h0.87c0.88,0,1.61,0.72,1.61,1.61V430.59z M568.26,430.86
		c0,0.43-0.35,0.78-0.78,0.78l0,0c-0.43,0-0.78-0.35-0.78-0.78v-6.61c0-0.43,0.35-0.78,0.78-0.78l0,0c0.43,0,0.78,0.35,0.78,0.78
		v1.68c0.61-1.46,0.94-3.06,0.94-4.73c0-3.02-1.08-5.78-2.88-7.93c-0.2,0.42-0.41,0.83-0.63,1.23c-1.89-2.29-4.55-3.89-7.56-4.38
		c-0.34-0.06-0.75-0.11-1.22-0.12c-0.52-0.01-0.98,0.05-1.35,0.12c-3.02,0.49-5.67,2.09-7.57,4.38c-0.22-0.4-0.43-0.82-0.63-1.23
		c-1.8,2.15-2.88,4.91-2.88,7.93c0,1.17,0.16,2.3,0.47,3.37v-0.32c0-0.43,0.35-0.78,0.78-0.78s0.78,0.35,0.78,0.78v6.61
		c0,0.43-0.35,0.78-0.78,0.78s-0.78-0.35-0.78-0.78v-2.65c-1.22-2.06-1.92-4.45-1.92-7.01c0-3.62,1.39-6.91,3.67-9.38
		c-0.16-0.31-0.33-0.63-0.48-0.95c2.43-2.7,5.85-4.44,9.67-4.61c0.29-0.02,0.6-0.04,0.94-0.04c0.34,0,0.66,0.02,0.95,0.04
		c3.82,0.17,7.24,1.91,9.67,4.61c-0.15,0.32-0.32,0.64-0.48,0.95c2.28,2.46,3.67,5.76,3.67,9.38c0,2.88-0.89,5.54-2.39,7.76V430.86z
		"/>
	<path class="st2" d="M782.43,438.48c-0.12-0.04-0.28-0.11-0.45-0.22c-0.24-0.16-0.4-0.35-0.49-0.48c-0.12-0.23-0.24-0.46-0.37-0.69
		c-4.54-8.56-9.07-17.12-13.61-25.68c-0.09-0.18-0.18-0.36-0.27-0.54c-0.01-0.03-0.1-0.31,0.09-0.57c0.19-0.26,0.48-0.26,0.51-0.26
		c0.16-0.01,0.37,0,0.61,0.04c0.36,0.07,0.63,0.21,0.81,0.32c0.45,0.22,0.83,0.43,1.12,0.6c0.27,0.17,0.68,0.41,1.18,0.8
		c0.33,0.26,0.59,0.5,0.79,0.68c0.47,0.45,0.86,0.85,1.14,1.15c0.5,0.53,1.11,1.18,1.82,2.09c0.34,0.44,0.61,0.82,0.79,1.09
		c0.28,0.41,0.56,0.82,0.84,1.23c0.9,1.31,1.81,2.63,2.71,3.94c1.38,2.3,2.75,4.6,4.13,6.9l1.53,3.02c0,0,0.36,0.71,0.36,0.71
		c0,0,0.39,0.76,0.39,0.77c0.09,0.19,0.2,0.49,0.24,0.87c0.01,0.1,0.02,0.24,0,0.41c-0.02,0.18-0.09,0.54-0.4,0.93
		c0,0-0.13,0.31-0.13,0.31c0,0-0.27,0.63-0.27,0.63c0,0-0.09,0.41-0.09,0.41c0,0-0.08,0.37-0.08,0.37
		c-0.01,0.19,0.01,0.42,0.09,0.66c0.1,0.28,0.26,0.46,0.29,0.5c0.43,0.52,4.45,8.21,8.77,16.42c5.25-1.3,9.99-3.92,13.83-7.49
		c-2.78-5.05-5.55-10.11-8.33-15.16c-0.12-0.24-0.26-0.42-0.36-0.55c-0.1-0.12-0.3-0.35-0.63-0.57c-0.17-0.12-0.32-0.2-0.44-0.26
		c-0.2-0.11-0.48-0.24-0.83-0.33c-0.28-0.07-0.53-0.09-0.73-0.1c-0.33,0.01-0.72-0.01-1.16-0.08c-0.53-0.08-0.97-0.22-1.33-0.35
		c-0.24-0.14-0.51-0.31-0.78-0.52c-0.2-0.15-0.37-0.3-0.53-0.44c-0.1-0.12-0.25-0.3-0.43-0.51c-0.42-0.5-0.51-0.59-0.64-0.77
		c-0.16-0.2-0.38-0.51-0.6-0.92c-0.17-0.34-0.35-0.68-0.52-1.04c-0.16-0.32-0.31-0.65-0.46-0.96c-2.15-4.6-4.3-9.2-6.45-13.8
		l0.4-0.26c2.16,4.2,4.31,8.39,6.47,12.59c0.08,0.12,0.15,0.24,0.23,0.36c0.06,0.1,0.12,0.19,0.18,0.29
		c0.06,0.06,0.16,0.13,0.29,0.19c0.11,0.04,0.2,0.06,0.28,0.07c0.06-0.01,0.31-0.03,0.48-0.24c0.07-0.09,0.11-0.18,0.13-0.24
		c0-0.17-0.03-0.3-0.06-0.38c-0.03-0.09-0.06-0.16-0.11-0.26c-0.09-0.19-0.17-0.32-0.18-0.33c-0.11-0.18-2.09-3.85-6.79-12.63
		c0.13-0.08,0.25-0.16,0.38-0.25c2.6,4.04,5.2,8.08,7.81,12.13c0.08,0.14,0.21,0.33,0.42,0.5c0.12,0.11,0.24,0.18,0.35,0.24
		c0.03,0.01,0.09,0.02,0.18,0.01l0.29-0.19c0.04-0.07,0.06-0.14,0.06-0.17c-0.01-0.12-0.03-0.26-0.07-0.42
		c-0.07-0.26-0.19-0.46-0.28-0.59c-2.54-4.08-5.09-8.16-7.63-12.24c0.13-0.08,0.25-0.16,0.38-0.25c5.92,7.99,8.4,11.35,8.51,11.52
		c0.01,0.01,0.09,0.14,0.22,0.3c0.07,0.08,0.12,0.14,0.19,0.21c0.07,0.06,0.17,0.14,0.32,0.21c0.06,0.01,0.16,0.01,0.27-0.02
		c0.26-0.07,0.39-0.29,0.42-0.34c0.02-0.07,0.05-0.17,0.05-0.28c0.01-0.15-0.02-0.27-0.04-0.35c-0.06-0.1-0.12-0.19-0.18-0.29
		c-0.08-0.12-0.15-0.24-0.23-0.36c-2.87-3.73-5.74-7.47-8.61-11.2l0.4-0.26c3.24,3.9,6.47,7.79,9.71,11.69
		c0.22,0.27,0.45,0.55,0.67,0.83c0.24,0.31,0.48,0.61,0.71,0.91c0.28,0.38,0.46,0.71,0.58,0.94c0.1,0.19,0.15,0.32,0.42,0.91
		c0.12,0.26,0.22,0.47,0.28,0.61c0.06,0.2,0.12,0.43,0.18,0.67c0.07,0.34,0.12,0.65,0.14,0.94c-0.03,0.38-0.09,0.85-0.24,1.36
		c-0.12,0.43-0.27,0.79-0.41,1.09c-0.08,0.19-0.16,0.42-0.22,0.71c-0.07,0.36-0.07,0.67-0.05,0.9c0,0.13,0.01,0.3,0.05,0.51
		c0.07,0.39,0.19,0.68,0.25,0.81c0.07,0.15,0.18,0.35,0.34,0.56c3.23,4.45,6.45,8.9,9.68,13.35c4.78-5.52,7.67-12.72,7.67-20.59
		c0-17.39-14.1-31.5-31.5-31.5s-31.5,14.1-31.5,31.5s14.1,31.5,31.5,31.5c1.23,0,2.44-0.07,3.63-0.21
		C787.8,449.9,785.11,444.19,782.43,438.48z"/>
	<g>
		<g>
			<path class="st2" d="M658.93,567.24c-0.11-0.46-0.97-4.04,0.76-6.24c2.17-2.76,6.58-1.01,7.91-3.6c0.67-1.31-0.17-2.29,0.76-3.46
				c0.95-1.19,2.24-0.67,4-1.41c3.37-1.4,5.79-6.26,4.79-9.34c-0.4-1.24-1.41-2.38-1.05-2.76c0.23-0.24,0.86-0.03,1.33,0.18
				c0.29,0.15,0.69,0.41,1.06,0.82c2.21,2.49,1.25,8.58-2.07,11.39c-2.82,2.39-7,2.12-7.15,3.84c-0.06,0.7,0.6,1.07,0.38,1.73
				c-0.31,0.93-1.88,1.01-3.8,1.46c-2.88,0.68-5.05,1.18-5.7,2.55c-0.52,1.09-0.16,2.9,0.72,4.53l29.58-19.55
				c-6.62-8.84-19.13-11.05-28.55-4.82c-9.42,6.22-12.29,18.6-6.75,28.16l4.02-2.66C659.08,567.8,659,567.53,658.93,567.24z"/>
			<path class="st2" d="M672.54,577.51c-0.8,0.82-2.1,0.82-2.9,0l-1.4-1.44c-0.8-0.82-0.8-2.16,0-2.98l21.69-22.25
				c0.66-0.68,1.68-0.79,2.46-0.34c-0.18-0.35-0.36-0.7-0.56-1.05l-29.49,19.49c0.29,0.3,0.6,0.56,0.92,0.79
				c0,0,2.21,1.54,2.29,2.75c0.02,0.33,0,0.61,0,0.61c-0.07,0.34-0.24,0.57-0.35,0.7c-0.17,0.1-0.51,0.27-0.91,0.21
				c-0.11-0.02-0.27-0.08-0.73-0.38c-0.38-0.25-0.64-0.48-0.8-0.62c-0.77-0.69-1.15-1.03-1.28-1.17c-0.27-0.29-0.74-0.82-1.21-1.53
				l-3.75,2.48c6.62,8.84,19.13,11.05,28.55,4.82c7.56-5,10.9-13.96,9.06-22.25L672.54,577.51z"/>
			<path class="st2" d="M673.3,533.38c-14.89,0-26.95,12.07-26.95,26.95c0,14.89,12.07,26.95,26.95,26.95s26.95-12.07,26.95-26.95
				C700.26,545.44,688.19,533.38,673.3,533.38z M686.7,580.09c-11.03,7.29-25.88,4.26-33.17-6.77c-7.29-11.03-4.26-25.88,6.77-33.17
				c11.03-7.29,25.88-4.26,33.17,6.77C700.77,557.94,697.74,572.8,686.7,580.09z"/>
			<path class="st2" d="M684.27,564.4c0.54-0.55,0.54-1.45,0-2.01l-1.3-1.33c-0.54-0.55-1.42-0.55-1.96,0l-11.66,11.96
				c0.15,0.03,0.31,0.09,0.47,0.16c0.01-0.01,0.02-0.02,0.03-0.03c0.21-0.15,0.5-0.1,0.65,0.12c0.09,0.13,0.1,0.28,0.06,0.42
				c0.27,0.24,0.52,0.53,0.75,0.87c0.23,0.34,0.41,0.7,0.53,1.04c0.2-0.1,0.45-0.04,0.59,0.16c0.15,0.22,0.09,0.52-0.12,0.67
				c-0.08,0.06-0.17,0.08-0.27,0.08c0.01,0.15,0.01,0.29-0.01,0.42L684.27,564.4z M670.26,572.9c-0.11,0.08-0.25,0.05-0.32-0.06
				c-0.07-0.11-0.05-0.26,0.06-0.33c0.11-0.08,0.25-0.05,0.32,0.06C670.39,572.68,670.37,572.83,670.26,572.9z M671.85,574.19
				c-0.29-0.42-0.18-1.01,0.23-1.3c0.41-0.29,0.98-0.19,1.27,0.24c0.29,0.42,0.18,1.01-0.23,1.3
				C672.7,574.72,672.13,574.62,671.85,574.19z M672.32,575.27c-0.11-0.16-0.07-0.37,0.08-0.48c0.15-0.11,0.36-0.07,0.46,0.09
				c0.1,0.16,0.07,0.37-0.08,0.48C672.63,575.46,672.43,575.43,672.32,575.27z"/>
		</g>
		<path class="st2" d="M735.04,533.32c-14.8,0-26.79,11.99-26.79,26.79s12,26.79,26.79,26.79s26.79-12,26.79-26.79
			S749.83,533.32,735.04,533.32z M729.31,572.18c-1.9,0.3-3.68-0.99-3.98-2.89s0.99-3.68,2.89-3.98c1.9-0.3,3.68,0.99,3.98,2.89
			C732.5,570.1,731.21,571.88,729.31,572.18z M738.42,570.48c-1.06,0.05-2.13,0.08-3.19,0.1c0.16-0.79,0.19-1.62,0.05-2.46
			c-0.6-3.79-4.15-6.37-7.94-5.77c-1.09,0.17-2.09,0.59-2.93,1.19c-0.34-1.03-0.65-2.07-0.94-3.11c1.02-0.58,2.16-0.99,3.38-1.18
			c5.49-0.87,10.65,2.88,11.52,8.38C738.53,568.6,738.54,569.56,738.42,570.48z M745.6,570.04c-1.25,0.09-2.5,0.18-3.75,0.26
			c0.14-1.17,0.13-2.39-0.07-3.61c-1.14-7.19-7.89-12.1-15.08-10.97c-1.47,0.23-2.84,0.7-4.09,1.36c-0.29-1.23-0.57-2.47-0.84-3.71
			c1.35-0.62,2.81-1.06,4.35-1.31c9.21-1.46,17.86,4.83,19.31,14.04C745.65,567.44,745.7,568.75,745.6,570.04z M753.75,569.41
			c-1.41,0.1-2.82,0.22-4.23,0.33c0.04-1.28-0.04-2.58-0.25-3.89c-1.81-11.45-12.55-19.26-24-17.45c-1.51,0.24-2.95,0.63-4.32,1.16
			c-0.31-1.41-0.62-2.81-0.97-4.21c1.55-0.58,3.18-1.01,4.88-1.28c13.63-2.15,26.43,7.15,28.59,20.78
			C753.7,566.38,753.79,567.91,753.75,569.41z"/>
		<g>
			<path class="st2" d="M816.59,543.81c-0.11-0.11-0.23-0.21-0.34-0.32l-5.2,5.2h3.27c0.62,0,1.12,0.5,1.12,1.12v1.55
				c0,0.62-0.5,1.12-1.12,1.12h-6.04c-0.29,0-0.54-0.11-0.74-0.29l-0.79,0.79h9.9c0.52,0,0.95,0.42,0.95,0.95v17.61
				c0,0.52-0.42,0.95-0.95,0.95h-29.41l-4.39,4.39c0.11,0.11,0.21,0.23,0.32,0.34c9.22,9.22,24.18,9.22,33.4,0
				S825.81,553.03,816.59,543.81z"/>
			<path class="st2" d="M799.6,531.65c-15.84,0-28.68,12.84-28.68,28.68c0,15.84,12.84,28.68,28.68,28.68
				c15.84,0,28.68-12.84,28.68-28.68C828.28,544.49,815.44,531.65,799.6,531.65z M818.18,578.63c-10.11,10.11-26.49,10.11-36.6,0
				s-10.11-26.49,0-36.6c10.11-10.11,26.49-10.11,36.6,0S828.29,568.52,818.18,578.63z"/>
			<path class="st2" d="M784.03,572.48h-1.49c-0.52,0-0.95-0.42-0.95-0.95v-17.61c0-0.52,0.42-0.95,0.95-0.95h3.69
				c1.94-2.84,5.2-4.7,8.89-4.7c3.57,0,6.73,1.74,8.69,4.42l3.65-3.65c0.02-0.02,0.04-0.05,0.07-0.07l7-7
				c-9.27-7.35-22.78-6.74-31.34,1.83c-8.57,8.57-9.17,22.07-1.83,31.34L784.03,572.48z"/>
		</g>
	</g>
	<path class="st2" d="M659.2,427.02c-10.09,0-18.26,8.18-18.26,18.26s8.18,18.26,18.26,18.26s18.26-8.18,18.26-18.26
		S669.28,427.02,659.2,427.02z M659.05,429.15c1.79,0,3.25,1.45,3.25,3.25s-1.45,3.25-3.25,3.25s-3.25-1.45-3.25-3.25
		S657.26,429.15,659.05,429.15z M663.2,437.56l-1.04,6.24c-0.01,0.06-0.04,0.12-0.07,0.18l0.99,4.43c0.01,0.04,0.01,0.08-0.01,0.12
		c0.01,0.04,0.01,0.08,0.01,0.12V459c0,0.41-0.33,0.75-0.75,0.75h-1.84c-0.41,0-0.75-0.33-0.75-0.75V448.8h-1.39V459
		c0,0.41-0.33,0.75-0.75,0.75h-1.84c-0.41,0-0.75-0.33-0.75-0.75v-10.36c0-0.04,0.01-0.08,0.01-0.12c-0.01-0.04-0.01-0.08-0.01-0.12
		l0.99-4.43c-0.03-0.05-0.06-0.11-0.07-0.18l-1.04-6.24c-0.05-0.28,0.17-0.54,0.46-0.54h7.38
		C663.03,437.02,663.25,437.28,663.2,437.56z"/>
	<path class="st2" d="M122.1,412.09c-10.28,0-18.61,8.33-18.61,18.61c0,10.28,8.33,18.61,18.61,18.61s18.61-8.33,18.61-18.61
		C140.72,420.43,132.38,412.09,122.1,412.09z M121.95,414.26c1.83,0,3.31,1.48,3.31,3.31c0,1.83-1.48,3.31-3.31,3.31
		s-3.31-1.48-3.31-3.31C118.65,415.74,120.13,414.26,121.95,414.26z M126.18,422.84l-1.06,6.36c-0.01,0.07-0.04,0.13-0.07,0.18
		l1,4.51c0.01,0.04,0.01,0.09-0.01,0.13c0.01,0.04,0.01,0.08,0.01,0.12v10.56c0,0.42-0.34,0.76-0.76,0.76h-1.88
		c-0.42,0-0.76-0.34-0.76-0.76v-10.4h-1.42v10.4c0,0.42-0.34,0.76-0.76,0.76h-1.88c-0.42,0-0.76-0.34-0.76-0.76v-10.56
		c0-0.04,0.01-0.08,0.01-0.12c-0.01-0.04-0.02-0.08-0.01-0.13l1-4.51c-0.03-0.05-0.06-0.11-0.07-0.18l-1.06-6.36
		c-0.05-0.29,0.18-0.55,0.47-0.55h7.52C126.01,422.28,126.23,422.55,126.18,422.84z"/>
	<g>
		<path class="st3" d="M151.05,358.43c-3.5,0-6.35,2.84-6.35,6.35c0,1.3,0.39,2.5,1.06,3.51l5.31,10.25l5.59-10.78h-0.01
			c0.48-0.89,0.74-1.9,0.74-2.98C157.39,361.27,154.55,358.43,151.05,358.43z M151.05,367.92c-1.78,0-3.22-1.44-3.22-3.22
			c0-1.78,1.44-3.22,3.22-3.22c1.78,0,3.22,1.44,3.22,3.22C154.26,366.48,152.83,367.92,151.05,367.92z"/>
		<path class="st3" d="M151.02,350.98c-10.22,0-18.51,8.29-18.51,18.51c0,10.22,8.29,18.51,18.51,18.51
			c10.22,0,18.51-8.29,18.51-18.51C169.53,359.27,161.24,350.98,151.02,350.98z M158.83,368.52l-7.75,14.96l-7.37-14.22
			c-0.93-1.39-1.47-3.07-1.47-4.87c0-4.86,3.94-8.8,8.8-8.8c4.86,0,8.8,3.94,8.8,8.8C159.85,365.88,159.48,367.29,158.83,368.52
			L158.83,368.52z"/>
	</g>
</g>
<g id="Layer_5" class="st4">
</g>
</svg>
